<svg height="512" viewBox="0 0 378 294" width="512" xmlns="http://www.w3.org/2000/svg"><g id="Layer_2" data-name="Layer 2"><g id="camera"><circle cx="168" cy="147" fill="green" r="63"/><path d="m294 0h-210a84 84 0 0 0 -84 84v126a84.0009 84.0009 0 0 0 84 84h210a84 84 0 0 0 84-84v-126a83.9993 83.9993 0 0 0 -84-84zm-126 189a42 42 0 1 1 42-42 42 42 0 0 1 -42 42z" fill="green"/><path d="m294 0h-210a84 84 0 0 0 -84 84v126a84.0009 84.0009 0 0 0 84 84h210a84 84 0 0 0 84-84v-126a83.9993 83.9993 0 0 0 -84-84zm42 210a42.0482 42.0482 0 0 1 -42 42h-210a42.0482 42.0482 0 0 1 -42-42v-126a42.0482 42.0482 0 0 1 42-42h210a42.0482 42.0482 0 0 1 42 42zm-168-126a63 63 0 1 0 63 63 63 63 0 0 0 -63-63zm0 84a21 21 0 1 1 21-21 21.0241 21.0241 0 0 1 -21 21zm126-63a21 21 0 1 1 -21-21 21 21 0 0 1 21 21z" fill="green"/></g></g></svg>