<svg height="500" viewBox="0 0 500 500" width="500" xmlns="http://www.w3.org/2000/svg">
  <g id="_26_Forest" data-name="26 Forest">
  <path d="
  M 206.73 222.41
  C 196.50 231.43 188.71 241.74 184.30 254.74
  Q 180.68 265.40 179.91 279.44"></path>
    <path d="
  M 288.71 283.52
  C 284.30 290.61 280.39 295.94 274.42 301.46"></path>
    <path d="
  M 226.44 229.96
  C 209.14 241.36 198.65 258.94 198.10 279.50"></path>
    <path d="
  M 257.07 292.79
  C 266.95 287.42 273.05 278.78 277.21 268.45"></path>
  </g>
  <path fill="green" d="
  M 480.54 216.10
  Q 470.49 215.93 460.49 215.71
  Q 458.47 215.66 457.92 213.63
  Q 453.62 197.70 447.34 181.04
  Q 441.64 165.90 430.89 148.01
  Q 429.71 146.04 431.39 144.26
  Q 438.44 136.76 445.18 129.95
  Q 446.08 129.04 445.18 128.13
  L 397.72 79.98
  A 1.63 1.62 45.1 0 0 395.42 79.97
  L 382.01 93.35
  A 2.67 2.67 0.0 0 1 378.76 93.75
  Q 347.97 75.36 312.97 66.91
  A 2.26 2.24 6.9 0 1 311.25 64.73
  L 311.25 43.44
  Q 311.25 42.87 310.69 42.88
  L 242.13 42.99
  A 1.26 1.26 0.0 0 0 240.88 44.25
  L 240.88 63.78
  A 2.84 2.83 -9.3 0 1 238.94 66.47
  Q 229.88 69.53 220.16 72.48
  C 203.46 77.57 189.18 84.52 173.86 93.94
  C 172.47 94.79 171.05 93.93 170.06 92.95
  Q 163.13 86.05 157.16 80.06
  A 2.50 2.50 0.0 0 0 153.61 80.07
  L 121.37 112.81
  Q 121.06 113.13 120.74 112.82
  L 109.13 101.48
  A 0.51 0.49 45.0 0 1 109.12 100.77
  Q 123.77 86.08 136.48 72.74
  C 140.85 68.17 146.28 63.90 152.51 62.28
  C 161.55 59.93 167.41 65.43 172.78 71.70
  Q 174.43 73.63 176.71 72.34
  Q 198.89 59.77 220.18 53.86
  C 221.68 53.44 222.89 52.27 223.08 50.65
  C 224.33 40.10 225.42 31.01 236.39 26.12
  Q 239.09 24.91 242.11 24.93
  Q 274.74 25.12 307.43 24.91
  Q 311.73 24.89 314.97 26.21
  Q 324.39 30.05 327.45 39.49
  C 328.59 42.99 328.21 46.60 328.25 50.24
  Q 328.28 52.61 330.54 53.31
  Q 354.89 60.96 377.24 72.28
  A 1.50 1.50 0.0 0 0 379.00 71.98
  C 386.26 64.45 394.16 59.19 404.66 63.88
  Q 408.99 65.81 414.43 71.39
  Q 434.73 92.22 455.40 113.09
  C 466.26 124.07 463.53 136.54 453.70 146.99
  C 452.66 148.10 452.56 149.52 453.23 150.84
  Q 463.66 171.07 469.80 192.72
  C 470.70 195.90 473.00 198.71 476.55 198.62
  C 487.70 198.34 494.69 202.33 498.42 212.93
  Q 499.54 216.09 499.53 219.38
  Q 499.45 251.82 499.53 285.88
  Q 499.53 288.15 498.61 290.25
  Q 492.32 304.62 476.68 304.63
  C 473.07 304.64 470.73 306.75 469.70 309.98
  Q 462.63 331.96 452.27 352.78
  C 451.57 354.18 452.38 355.50 453.34 356.49
  C 460.43 363.81 464.84 373.56 459.41 382.78
  Q 457.17 386.59 453.66 390.07
  Q 430.00 413.51 412.31 432.15
  Q 405.64 439.18 397.24 440.16
  C 390.09 440.99 384.38 437.45 379.95 432.05
  C 379.03 430.94 377.54 430.54 376.19 431.11
  Q 355.07 440.04 331.89 448.90
  Q 328.01 450.38 327.97 454.81
  C 327.91 462.58 325.01 469.46 319.38 474.58
  Q 318.92 475.00 318.29 475.00
  L 231.71 475.00
  A 1.32 1.30 -20.3 0 1 230.72 474.55
  Q 222.73 465.42 222.92 452.83
  A 2.94 2.94 0.0 0 0 220.81 449.96
  Q 197.78 443.17 176.95 431.05
  C 175.71 430.33 174.13 431.01 173.20 431.96
  C 166.25 439.06 157.19 443.73 147.34 439.56
  Q 143.87 438.08 139.86 433.99
  Q 124.57 418.37 110.68 404.33
  A 0.67 0.66 -41.8 0 1 110.74 403.33
  Q 117.61 397.99 122.63 391.65
  Q 122.97 391.22 123.36 391.62
  Q 138.27 406.99 152.74 421.68
  Q 153.55 422.50 154.55 423.14
  A 1.89 1.89 0.0 0 0 156.92 422.90
  L 170.46 409.46
  A 2.58 2.57 -51.5 0 1 173.62 409.09
  C 186.60 417.03 200.03 424.62 214.72 429.17
  Q 224.13 432.08 232.96 434.83
  Q 235.62 435.66 238.47 436.75
  Q 240.23 437.43 240.23 439.39
  Q 240.23 449.29 240.34 458.93
  A 1.50 1.50 0.0 0 0 241.83 460.41
  Q 279.52 460.79 306.95 460.40
  Q 308.38 460.38 309.80 460.26
  A 1.05 1.04 14.3 0 0 310.59 459.80
  Q 311.32 458.75 311.28 457.02
  Q 311.07 448.28 311.33 440.75
  C 311.47 436.74 314.27 436.14 317.79 435.26
  C 339.41 429.87 358.86 422.02 377.30 409.76
  C 378.68 408.84 380.54 409.12 381.69 410.28
  Q 385.69 414.30 390.04 418.05
  Q 391.49 419.30 392.58 420.87
  C 395.97 425.77 398.70 423.34 401.79 420.21
  Q 423.80 397.92 444.13 377.17
  Q 446.36 374.89 444.29 372.87
  Q 443.21 371.81 442.37 370.54
  Q 438.71 365.00 433.00 359.72
  C 431.06 357.93 430.18 355.23 432.01 352.94
  Q 432.64 352.16 433.18 351.30
  Q 450.52 323.90 457.03 292.32
  Q 457.54 289.87 458.74 288.91
  Q 460.62 287.40 463.74 287.50
  Q 471.71 287.77 479.98 286.56
  Q 480.68 286.46 480.73 285.75
  C 481.84 268.75 481.16 252.05 480.62 234.99
  Q 480.36 227.08 481.47 217.16
  A 0.95 0.95 0.0 0 0 480.54 216.10
  Z"></path>
  <path fill="green" d="
  M 331.58 111.67
  Q 287.80 93.48 242.08 103.96
  Q 231.23 106.45 219.73 110.63
  Q 217.96 111.28 217.32 109.51
  L 212.38 95.82
  A 1.49 1.49 0.0 0 1 213.24 93.92
  Q 236.58 84.94 262.10 82.85
  Q 272.70 81.98 282.60 82.51
  Q 340.83 85.64 384.19 123.54
  C 415.39 150.83 436.31 189.37 439.99 230.77
  Q 440.96 241.65 440.98 252.51
  C 441.03 293.96 426.83 331.91 400.30 363.92
  C 388.72 377.89 374.39 389.14 358.37 397.36
  C 352.55 400.35 347.44 403.84 341.97 407.11
  C 340.51 407.97 338.52 409.39 336.80 409.15
  C 334.43 408.82 333.86 406.77 332.87 404.89
  C 331.68 402.63 327.56 393.67 331.38 392.23
  Q 358.34 382.13 380.74 359.45
  Q 408.87 330.96 419.06 292.10
  C 427.08 261.48 426.04 230.28 415.37 201.01
  Q 396.44 149.04 349.36 120.64
  Q 340.90 115.54 331.58 111.67
  Z"></path>
  <path fill="green" d="
  M 177.62 162.13
  A 1.44 1.44 0.0 0 1 177.68 160.22
  Q 205.15 131.35 243.37 121.21
  C 267.79 114.73 293.47 116.58 317.60 124.83
  Q 361.73 139.92 387.73 181.00
  Q 388.85 182.76 389.62 184.69
  A 0.44 0.43 -24.3 0 1 389.41 185.23
  L 376.31 192.22
  A 2.13 2.12 59.8 0 1 373.50 191.47
  Q 370.21 186.26 366.26 181.19
  Q 333.83 139.42 279.99 135.37
  Q 261.46 133.97 242.27 139.73
  Q 211.02 149.10 187.16 176.33
  Q 186.75 176.79 186.50 176.23
  Q 183.07 168.70 177.62 162.13
  Z"></path>
  <path d="
  M 206.73 222.41
  C 196.50 231.43 188.71 241.74 184.30 254.74
  Q 180.68 265.40 179.91 279.44
  Q 169.00 279.68 162.00 280.52
  Q 140.75 283.09 119.85 288.28
  A 0.79 0.78 -7.1 0 0 119.25 289.04
  L 119.25 345.66
  A 0.18 0.18 0.0 0 1 118.96 345.80
  L 4.67 250.56
  A 0.74 0.74 0.0 0 1 4.67 249.42
  L 118.82 154.31
  A 0.26 0.26 0.0 0 1 119.25 154.51
  L 119.25 210.81
  Q 119.25 211.49 119.93 211.49
  Q 147.13 211.72 168.42 214.41
  Q 184.84 216.49 193.87 218.90
  Q 200.28 220.60 206.73 222.41
  Z"></path>
  <path fill="green" d="
  M 288.71 283.52
  C 284.30 290.61 280.39 295.94 274.42 301.46
  Q 263.66 310.56 251.51 314.04
  Q 235.20 318.71 217.44 319.61
  Q 203.11 320.34 186.80 321.36
  Q 184.15 321.52 183.58 318.99
  Q 179.17 299.44 179.91 279.44
  Q 180.68 265.40 184.30 254.74
  C 188.71 241.74 196.50 231.43 206.73 222.41
  C 223.19 208.71 241.21 201.17 261.75 195.80
  Q 288.04 188.91 317.24 185.94
  Q 318.82 185.78 320.43 185.75
  Q 322.89 185.72 321.68 187.86
  Q 315.47 198.87 311.88 208.76
  Q 309.45 215.46 306.60 228.65
  Q 304.56 238.08 302.10 248.02
  Q 297.48 266.68 288.71 283.52
  Z
  M 226.44 229.96
  C 209.14 241.36 198.65 258.94 198.10 279.50
  L 198.25 301.32
  Q 198.26 302.54 199.48 302.56
  Q 220.76 302.88 241.20 299.20
  Q 246.98 298.16 257.07 292.79
  C 266.95 287.42 273.05 278.78 277.21 268.45
  Q 278.33 265.95 279.06 263.26
  Q 286.34 236.24 293.15 209.32
  A 1.18 1.18 0.0 0 0 291.87 207.86
  Q 259.74 211.68 231.14 226.87
  Q 228.93 228.05 226.44 229.96
  Z"></path>
  <path d="
  M 226.44 229.96
  Q 256.12 243.41 277.21 268.45
  C 273.05 278.78 266.95 287.42 257.07 292.79
  C 252.85 291.47 248.21 289.47 244.75 288.32
  Q 222.15 280.84 198.10 279.50
  C 198.65 258.94 209.14 241.36 226.44 229.96
  Z"></path>
  <path fill="green" d="
  M 196.18 337.93
  C 220.87 359.72 252.67 372.50 285.20 368.27
  Q 293.39 367.20 303.98 364.78
  Q 331.07 358.58 351.24 339.82
  Q 373.22 319.38 383.24 291.72
  C 385.23 286.25 386.32 280.37 387.31 274.62
  C 387.85 271.46 388.97 268.47 390.12 265.49
  Q 390.88 263.49 393.00 263.74
  L 405.78 265.28
  A 0.76 0.75 8.9 0 1 406.43 266.17
  C 404.40 276.68 402.29 287.74 398.93 297.80
  C 388.06 330.36 365.00 356.05 334.27 372.58
  C 320.35 380.06 304.12 384.84 289.01 385.88
  Q 272.85 386.99 258.97 385.84
  C 231.06 383.53 203.43 369.12 183.03 350.32
  Q 182.33 349.68 183.00 349.00
  L 193.82 338.01
  A 1.72 1.71 43.0 0 1 196.18 337.93
  Z"></path>
  <path d="
  M 288.71 283.52
  Q 302.14 303.82 310.51 325.25
  Q 311.16 326.91 309.79 325.77
  Q 292.64 311.59 274.42 301.46
  C 280.39 295.94 284.30 290.61 288.71 283.52
  Z"></path>
  <path fill="green" d="
  M 160.32 352.06
  Q 160.45 351.82 160.53 351.57
  Q 160.73 350.97 161.14 351.44
  C 177.80 370.59 197.84 384.50 221.15 394.61
  A 2.18 2.17 -69.8 0 1 222.36 397.25
  Q 220.26 403.98 218.18 409.92
  Q 217.44 412.04 215.37 411.24
  Q 177.93 396.63 150.69 366.32
  A 0.89 0.89 0.0 0 1 150.71 365.10
  Q 156.55 359.04 160.32 352.06
  Z"></path>
</svg>